<?xml version="1.0" encoding="UTF-8" standalone="no"?>
<!DOCTYPE svg PUBLIC "-//W3C//DTD SVG 1.1//EN" "http://www.w3.org/Graphics/SVG/1.1/DTD/svg11.dtd">
<svg width="100%" height="100%" viewBox="0 0 1025 1025" version="1.1" xmlns="http://www.w3.org/2000/svg" xmlns:xlink="http://www.w3.org/1999/xlink" xml:space="preserve" xmlns:serif="http://www.serif.com/" style="fill-rule:evenodd;clip-rule:evenodd;stroke-linejoin:round;stroke-miterlimit:2;">
    <g transform="matrix(1,0,0,1,0.351036,0.123768)">
        <g id="Background">
            <path d="M1.5,0L1023.999,0C1025.238,1.074 1023.999,1.462 1023.999,20.5L1023.999,1023.999C1020.9,1025.191 1020.765,1023.999 982.5,1023.999L0,1023.999C-0.79,1021.946 -0,1021.85 0,996.5L0,-0C0.257,-0.429 1.243,0.429 1.5,0Z"/>
            <path d="M416.229,703.593C381.771,592.037 326.147,502.445 326.987,500.691C328.309,497.93 332.127,498.056 395.918,444.984C412.533,431.161 412.687,431.37 605.113,274.022C612.194,268.232 656.45,232.044 693.338,201.289C711.643,186.028 711.894,184.208 713.165,185.771C713.655,186.373 617.876,465.226 617.523,465.526C613.397,469.039 560.703,501.761 555.725,504.853C547.872,509.73 495.467,542.778 490.23,546.08C484.788,549.512 478.498,551.563 482.36,553.705C513.085,570.745 515.053,570.073 514.161,572.406C513.591,573.898 480.59,652.129 469.587,679.535C466.682,686.772 435.857,759.495 433.93,764.73C430.122,775.075 433.285,758.58 416.229,703.593Z" style="fill:rgb(218,25,31);"/>
            <path d="M428.5,825.5C422.655,832.065 417.858,838.933 418.512,834.501C418.93,831.671 420.044,832.129 432.051,805.295C467.683,724.768 503.315,644.24 538.947,563.712C548.946,541.116 548.267,540.304 552.329,538.177C554.626,536.974 602.432,508.869 620.234,499.066C629.045,494.215 693.199,455.271 710.219,442.082C710.489,441.873 716.295,437.373 714.44,441.482C675.069,528.654 532.22,713.724 428.5,825.5Z" style="fill:rgb(216,25,31);"/>
            <path d="M423.604,715.568C423.106,718.18 422.674,718.052 422.5,717.936C421.711,717.407 422.084,716.607 422.134,716.5C422.539,715.63 423.192,716.451 423.604,715.568Z" style="fill:rgb(223,23,31);"/>
        </g>
    </g>
</svg>
